<?xml version="1.0" encoding="utf-8"?>
<!-- Generator: Adobe Illustrator 22.0.1, SVG Export Plug-In . SVG Version: 6.00 Build 0)  -->
<svg version="1.1" id="Capa_1" xmlns="http://www.w3.org/2000/svg" xmlns:xlink="http://www.w3.org/1999/xlink" x="0px" y="0px"
	 viewBox="-49 141 512 512" style="enable-background:new -49 141 512 512;" xml:space="preserve">
<style type="text/css">
	.st0{fill:#297FCA;}
	.st1{clip-path:url(#SVGID_2_);fill:#297FCA;}
</style>
<path class="st0" d="M101.1,309.1c-20.4,13.1-36.6,31.5-47.1,53.2c-2.4,5-0.3,11,4.7,13.3c5,2.4,11,0.3,13.3-4.7
	c18.2-37.9,57.2-62.4,99.2-62.4c18,0,35.8,4.4,51.6,12.8c4.9,2.6,10.9,0.7,13.5-4.1c0.8-1.5,1.2-3.1,1.2-4.7c0-3.6-1.9-7-5.3-8.8
	c-18.6-9.9-39.7-15.2-61-15.2C146.2,288.6,122,295.7,101.1,309.1z"/>
<path class="st0" d="M270.4,466.2c-18.2,37.9-57.2,62.4-99.2,62.4c-18,0-35.8-4.4-51.6-12.8c-4.9-2.6-10.9-0.7-13.5,4.1
	c-2.6,4.9-0.7,10.9,4.1,13.5c18.6,9.9,39.7,15.2,61,15.2c25,0,49.2-7.1,70.1-20.5c20.4-13.1,36.6-31.5,47.1-53.2
	c0.7-1.4,1-2.9,1-4.3c0-3.7-2.1-7.3-5.7-9C278.8,459.1,272.8,461.2,270.4,466.2z"/>
<path class="st0" d="M172.2,249.6c-93.3,0-169,75.7-169,169s75.7,169,169,169s169-75.7,169-169c0-1.4,0-2.7-0.1-4.1
	c0-0.4,0-0.7,0-1.1c0-1-0.1-2-0.1-3c0-0.4,0-0.9-0.1-1.3c-0.1-0.9-0.1-1.9-0.2-2.8c0-0.4-0.1-0.8-0.1-1.3c-0.1-1-0.2-2-0.3-3
	c0-0.3-0.1-0.6-0.1-0.9c-0.3-2.7-0.6-5.4-1-8.1c0-0.1,0-0.3-0.1-0.4c-0.2-1.2-0.4-2.4-0.6-3.6c0-0.2-0.1-0.4-0.1-0.6
	c-0.2-1.2-0.4-2.3-0.7-3.5c0-0.1-0.1-0.3-0.1-0.4C321.9,307.4,253.8,249.6,172.2,249.6z M171.2,568.6c-82.7,0-150-67.3-150-150
	s67.3-150,150-150s150,67.3,150,150S253.9,568.6,171.2,568.6z"/>
<g>
	<defs>
		<path id="SVGID_1_" d="M174.2,355.6c-8.1,4.7-12.8,13.3-12.8,22.3c0,4.7,1.9,9.5,4.3,13.8c1.9,3.8,2.8,10.4-3.8,13.8
			c-4.7,2.8-10.9,0.9-13.8-3.8c-2.8-3.8-6.2-7.6-10.4-10.4c-8.1-4.7-17.6-4.7-25.6,0s-12.8,13.3-12.8,22.3s4.7,17.6,12.8,22.3
			c8.1,4.7,17.6,4.7,25.6,0c4.3-2.4,7.6-6.2,10-10.4c1.9-3.3,7.1-7.6,13.8-3.8c4.7,2.8,6.2,9,3.8,13.8c-2.4,4.3-3.8,9-3.8,13.8
			c0,9,4.7,17.6,12.8,22.3c8.1,4.7,17.6,4.7,25.6,0c8.1-4.7,12.8-13.3,12.8-22.3s-4.7-17.6-12.8-22.3c-4.3-2.4-9-3.3-14.2-3.3
			c-4.3,0-10-2.8-10-10c0-5.7,4.3-10,10-10c4.7,0,10-0.9,14.2-3.3c8.1-4.7,12.8-13.3,12.8-22.3c0-9-4.7-17.6-12.8-22.3
			c-3.8-2.4-8.5-3.3-12.8-3.3C182.7,352.2,177.9,353.2,174.2,355.6"/>
	</defs>
	<use xlink:href="#SVGID_1_"  style="overflow:visible;fill:#297FCA;"/>
	<clipPath id="SVGID_2_">
		<use xlink:href="#SVGID_1_"  style="overflow:visible;"/>
	</clipPath>
	<path class="st1" d="M156.1,295.3l118.6,119.1L156.1,533L37,414.4L156.1,295.3z"/>
</g>
<g>
	<path class="st0" d="M431.4,264.2L369.3,202v35.5c-62.2,8.9-88.8,53.3-97.7,97.7c22.2-31.1,53.3-45.3,97.7-45.3v36.4L431.4,264.2z
		 M431.4,264.2"/>
</g>
</svg>
