<?xml version="1.0" encoding="utf-8"?>
<!-- Generator: Adobe Illustrator 22.0.1, SVG Export Plug-In . SVG Version: 6.00 Build 0)  -->
<svg version="1.1" id="Capa_1" xmlns="http://www.w3.org/2000/svg" xmlns:xlink="http://www.w3.org/1999/xlink" x="0px" y="0px"
	 viewBox="-49 141 512 512" style="enable-background:new -49 141 512 512;" xml:space="preserve">
<style type="text/css">
	.st0{fill:#297FCA;}
	.st1{clip-path:url(#SVGID_2_);fill:#297FCA;}
</style>
<path class="st0" d="M222.9,370.5c-20.4,13.1-36.6,31.5-47.1,53.2c-2.4,5-0.3,11,4.7,13.3c5,2.4,11,0.3,13.3-4.7
	C212,394.5,251,370,293,370c18,0,35.8,4.4,51.6,12.8c4.9,2.6,10.9,0.7,13.5-4.1c0.8-1.5,1.2-3.1,1.2-4.7c0-3.6-1.9-7-5.3-8.8
	c-18.6-9.9-39.7-15.2-61-15.2C268,350,243.8,357.1,222.9,370.5z"/>
<path class="st0" d="M392.2,527.6C374,565.5,335,590,293,590c-18,0-35.8-4.4-51.6-12.8c-4.9-2.6-10.9-0.7-13.5,4.1
	c-2.6,4.9-0.7,10.9,4.1,13.5c18.6,9.9,39.7,15.2,61,15.2c25,0,49.2-7.1,70.1-20.5c20.4-13.1,36.6-31.5,47.1-53.2
	c0.7-1.4,1-2.9,1-4.3c0-3.7-2.1-7.3-5.7-9C400.6,520.5,394.6,522.6,392.2,527.6z"/>
<path class="st0" d="M338.4,316.2c-1.2-2.9-2.7-5.6-4.4-8.2h26c25.4,0,46-20.6,46-46s-20.6-46-46-46h-80.1c5.1-7.4,8.1-16.4,8.1-26
	c0-25.4-20.6-46-46-46H-3c-25.4,0-46,20.6-46,46s20.6,46,46,46h80.1c-5.1,7.4-8.1,16.4-8.1,26s3,18.6,8.1,26H51
	c-25.4,0-46,20.6-46,46c0,14.6,6.8,27.6,17.4,36C11.8,378.4,5,391.4,5,406s6.8,27.6,17.4,36C11.8,450.4,5,463.4,5,478
	s6.8,27.6,17.4,36C11.8,522.4,5,535.4,5,550c0,25.4,20.6,46,46,46h117.9c31,33.2,75.2,54,124.2,54c93.7,0,170-76.3,170-170
	C463,402,410.2,336.1,338.4,316.2z M-29,190c0-14.3,11.7-26,26-26h245c14.3,0,26,11.7,26,26s-11.7,26-26,26H-3
	C-17.3,216-29,204.3-29,190z M89,262c0-14.3,11.7-26,26-26h245c14.3,0,26,11.7,26,26s-11.7,26-26,26h-64H115
	C100.7,288,89,276.3,89,262z M25,334c0-14.3,11.7-26,26-26h245c4,0,7.9,0.9,11.3,2.6c-4.7-0.4-9.5-0.6-14.3-0.6
	c-46.9,0-89.5,19.1-120.3,50H51C36.7,360,25,348.3,25,334z M25,406c0-14.3,11.7-26,26-26h104.6c-11.4,15.6-20.1,33.1-25.7,52H51
	C36.7,432,25,420.3,25,406z M25,478c0-14.3,11.7-26,26-26h74.3c-1.5,9.1-2.3,18.5-2.3,28c0,8.1,0.6,16.2,1.7,24H51
	C36.7,504,25,492.3,25,478z M51,576c-14.3,0-26-11.7-26-26s11.7-26,26-26h77.8c5,18.8,13.2,36.3,24,52H51z M293,630
	c-82.7,0-150-67.3-150-150s67.3-150,150-150s150,67.3,150,150S375.7,630,293,630z"/>
<g>
	<defs>
		<path id="SVGID_1_" d="M296,417c-8.1,4.7-12.8,13.3-12.8,22.3c0,4.7,1.9,9.5,4.3,13.8c1.9,3.8,2.8,10.4-3.8,13.8
			c-4.7,2.8-10.9,0.9-13.8-3.8c-2.8-3.8-6.2-7.6-10.4-10.4c-8.1-4.7-17.6-4.7-25.6,0c-8.1,4.7-12.8,13.3-12.8,22.3
			c0,9,4.7,17.6,12.8,22.3c8.1,4.7,17.6,4.7,25.6,0c4.3-2.4,7.6-6.2,10-10.4c1.9-3.3,7.1-7.6,13.8-3.8c4.7,2.8,6.2,9,3.8,13.8
			c-2.4,4.3-3.8,9-3.8,13.8c0,9,4.7,17.6,12.8,22.3c8.1,4.7,17.6,4.7,25.6,0c8.1-4.7,12.8-13.3,12.8-22.3c0-9-4.7-17.6-12.8-22.3
			c-4.3-2.4-9-3.3-14.2-3.3c-4.3,0-10-2.8-10-10c0-5.7,4.3-10,10-10c4.7,0,10-0.9,14.2-3.3c8.1-4.7,12.8-13.3,12.8-22.3
			s-4.7-17.6-12.8-22.3c-3.8-2.4-8.5-3.3-12.8-3.3C304.5,413.7,299.7,414.6,296,417"/>
	</defs>
	<use xlink:href="#SVGID_1_"  style="overflow:visible;fill:#297FCA;"/>
	<clipPath id="SVGID_2_">
		<use xlink:href="#SVGID_1_"  style="overflow:visible;"/>
	</clipPath>
	<path class="st1" d="M277.9,356.7l118.6,119.1L277.9,594.4L158.8,475.8L277.9,356.7z"/>
</g>
</svg>
