<?xml version="1.0" encoding="utf-8"?>
<!-- Generator: Adobe Illustrator 22.0.1, SVG Export Plug-In . SVG Version: 6.00 Build 0)  -->
<svg version="1.1" id="Layer_1" xmlns="http://www.w3.org/2000/svg" xmlns:xlink="http://www.w3.org/1999/xlink" x="0px" y="0px"
	 viewBox="0 0 24 24" style="enable-background:new 0 0 24 24;" xml:space="preserve">
<style type="text/css">
	.st0{fill:#39B950;}
</style>
<path class="st0" d="M13.1,8.2c0-0.1,0.3-0.1,0.4-0.1C13.6,8.1,13.4,8.5,13.1,8.2z M11,5.1l0.1,0C11.2,5.1,11,5.2,11,5.2
	c0.1,0.2,0,0.2,0,0.3c0,0.1-0.1,0-0.1,0.1c-0.1,0.1,0.3,0.1,0.3,0.1c0,0-0.4,0.1-0.3,0.2C11,6,11.7,5.7,11.6,5.7
	c0.2-0.1,0-0.1-0.1-0.2c0-0.2-0.1-0.5-0.2-0.7l0.1-0.1C11.1,4.4,11,5.1,11,5.1z M24,12c0,6.6-5.4,12-12,12C5.4,24,0,18.6,0,12
	S5.4,0,12,0C18.6,0,24,5.4,24,12z M15.7,6.6c0-0.1-0.2-0.3-0.4,0c-0.1,0.2-0.1,0.4-0.2,0.6c-0.1,0.2,0.6,0.3,0.6,0.2
	c0-0.3,0.7-0.1,0.9,0c0.2,0.1,0.6-0.2,0.2-0.4c-0.4-0.1-0.5-0.3-0.6-0.5c0,0,0.2-0.2,0.1-0.2C16.1,6.3,15.7,7,15.7,6.6z M22,12
	c0-1-0.2-2.1-0.4-2.6c-0.1-0.2-0.2-0.3-0.4-0.4c-0.3-0.1-1.3,0.6-1.5,0.3c-0.1-0.2-0.3,0.1-0.6,0c-0.1-0.1-0.5-0.5-0.6-0.5
	c-0.3,0.1,0.5,1,0.7,1.1c0.2-0.2,0.9-0.5,1,0c0.3,0.8-0.7,1.7-1.3,2.1c-0.8,0.7-0.6-0.4-1.1-0.9c-0.3-0.2-0.3-0.7-0.5-0.8
	c-0.1-0.1-0.7-0.7-0.7-0.8l0,0.2c-0.1,0.1-0.3-0.3-0.3-0.3c0,0.3,0.5,0.8,0.6,1c0.3,0.4,0.4,1,0.7,1.3c0.2,0.2,0.9,0.9,1,0.9
	c0.2,0,0.8-0.5,0.9-0.4c0.6,0.2-1.5,3.2-1.7,3.6c-0.2,0.3,0.1,1.1,0.1,1.5c0,0.4-0.4,0.6-0.7,0.8c-0.3,0.3-0.3,0.7-0.6,0.9
	c-0.5,0.3-0.9,1.4-1.6,1.3c-0.2,0-1.1,0.4-1.3,0c-0.1-0.3-0.2-0.5-0.4-0.7c-0.1-0.2,0-0.5-0.2-0.7c-0.1-0.2-0.5-0.5-0.5-0.7
	c0-0.2,0.1-0.6,0.3-0.7c0.2-0.1,0-0.5,0-0.7c0-0.4-0.3-0.6-0.5-0.9c-0.4-0.3-0.2-0.5-0.1-1c0-0.2-0.1-0.5-0.4-0.4
	c-0.6,0.2-0.4-0.4-0.8-0.4c-0.3,0-0.5,0.2-0.8,0.3c-0.3,0.1-0.7-0.1-1-0.1c-1.4-0.2-1.9-1.8-1.5-2.9c0-0.2-0.1-0.5,0-0.7
	c0.2-0.4,0.5-0.7,0.8-1c0.2-0.1,0.4-0.1,0.5-0.2c0.3-0.2,0.3-0.6,0.6-0.8c0.4-0.3,0.9-0.3,1.5-0.4c0.3,0,1.3-0.3,1.5-0.1
	c0,0,0.2,0.6,0,0.6c0.4,0,1.1,0.7,1.5,0.6c0.2-0.1,0.1-0.7,0.6-0.4c0.3,0.2,1.4,0.3,1.7,0.1c0.1-0.1,0.2-0.9,0.1-1
	c0.1,0.1-0.6,0.1-0.7,0.1c-0.1,0-0.2,0.1-0.4,0c0.1,0.1-0.6-0.4-0.2-0.7c-0.2,0.1-0.3,0-0.5,0.1c-0.1,0.1,0.1,0.2-0.1,0.3
	C14.2,8,14,7.3,13.9,7.3c-0.1-0.1-1-0.7-0.8-0.3l0.8,0.8c0,0-0.2-0.3-0.2-0.1c0.1-0.1,0,0.6-0.1,0.3c-0.1-0.1,0.1-0.1,0-0.3
	c0-0.1-0.2-0.2-0.3-0.2c-0.1-0.2-0.5-0.5-0.6-0.6c-0.1,0-0.8,0.1-0.8,0.1c-0.1,0.1-0.1,0.2-0.2,0.3c-0.1,0.1-0.3,0.1-0.4,0.2L11.1,8
	C11,8,10.3,8.3,10.3,8.3c0-0.1-0.5-0.2-0.5-0.3c0-0.2,0.2-0.7,0.2-0.9c0-0.2,1.1,0.3,1.1-0.2c0-0.2,0-0.5-0.3-0.5
	c0.1,0,0.7-0.2,0.8-0.4c0.1-0.2,0.5-0.4,0.7-0.4c0.3,0,0.2-0.4,0.4-0.6c0.1,0.1-0.1,0.4,0.1,0.5c0-0.1,0.4,0.1,0.5,0
	c0.1-0.1,0.7,0,0.6-0.3c-0.1-0.3,0.1-0.2,0.2-0.3c0,0,0.3-0.6,0.4-0.4c0-0.2-0.4,0.1-0.6,0.1c-0.3,0-0.2-0.5-0.1-0.7
	c0.1-0.1-0.2-0.3-0.2,0c0,0.3-0.3,0.6-0.2,1.1c0.1,0.7-0.7-0.2-0.8-0.1c-0.3,0.2-0.5-0.2-0.4-0.4c0.1-0.2,0.5-0.2,0.7-0.5
	c0.1-0.2,0.2-0.4,0.4-0.5c0.5-0.4,0.7-0.1,1.2,0c0.5,0,0.2,0.1,0.1,0.3c-0.1,0.2,0.3,0.3,0.4,0.1c0.1-0.1,0.2-0.3,0.3-0.5
	C15.4,3,16.2,3,15.6,2.7c-0.4-0.2-2-0.7-3.1-0.7c-0.2,0-0.4,0.3-0.6,0.4c-0.4,0.3-1.3,0.9-1.8,0.7C9.7,3,8.6,3.8,8.4,3.8
	c-0.1,0,0-0.6,0.4-0.7C8.6,3.1,10,2.4,10,2.3c0-0.2-2.8,0.8-2.7,1c0.1,0.1,0.3,0.1,0,0.3C7.1,3.7,6.9,4.4,6.7,4.4
	C6.2,4.6,6.2,3.9,5.6,4.8L4.7,5.1c-1.3,1.4-2.2,3.2-2.6,5.2c0,0.1,0.3,0.2,0.4,0.3c0.1,0.1,0.1,0.7,0.2,0.9c0.1,0.5,0.5,0.7,0.7,1.2
	c0.2,0.3,0.4,0.9,0.3,1.2c0.1-0.2,1.1,0.8,1.2,1c0.4,0.5,0.7,1.1,0.1,1.6c-0.2,0.2,0.3,1.1,0,1.4l-0.4,0.1c-0.4,0.2-0.2,0.8,0,1
	C6.6,20.8,9.2,22,12,22C17.5,22,22,17.5,22,12z M10.5,5.6c0.1-0.1,0.3-0.1,0.3-0.2c0-0.1,0,0,0.1-0.1c0-0.1-0.1-0.1-0.1-0.1
	c-0.1,0-0.1,0.1-0.1,0.1l-0.1,0l-0.1,0.1l0,0l-0.1,0.1C10.3,5.6,10.4,5.7,10.5,5.6z"/>
</svg>
