<?xml version="1.0" encoding="utf-8"?>
<!-- Generator: Adobe Illustrator 22.0.1, SVG Export Plug-In . SVG Version: 6.00 Build 0)  -->
<svg version="1.1" id="Capa_1" xmlns="http://www.w3.org/2000/svg" xmlns:xlink="http://www.w3.org/1999/xlink" x="0px" y="0px"
	 viewBox="-68 160.3 473.7 473.7" style="enable-background:new -68 160.3 473.7 473.7;" xml:space="preserve">
<style type="text/css">
	.st0{fill:#FFFFFF;}
	.st1{fill:#EFECEC;}
	.st2{fill:#E63026;}
	.st3{fill:#2B479D;}
	.st4{fill:#EFEFEF;}
	.st5{fill:#E73B36;}
	.st6{fill:#3757A6;}
</style>
<circle class="st0" cx="168.9" cy="397.2" r="236.8"/>
<path class="st1" d="M392.1,318.2H246.2c6.3,50.6,6.4,106.3,0.1,157h146.1c8.5-24.4,13.2-50.7,13.2-78
	C405.7,369.5,400.9,342.9,392.1,318.2z"/>
<path class="st2" d="M246.2,318.2h145.9c0-0.1,0-0.1-0.1-0.2c-30.3-85.5-108.3-148.3-202-156.7C226.4,181.2,236.9,244.1,246.2,318.2
	z"/>
<path class="st3" d="M190.1,633c93.8-8.4,171.9-71.5,202.1-157.2c0.1-0.2,0.1-0.5,0.2-0.7H246.3C237.1,549.7,226.5,613.1,190.1,633z
	"/>
<path class="st4" d="M-68,397.2c0,27.3,4.7,53.6,13.2,78h313.3c6.3-50.7,6.2-106.4-0.1-157H-54.5C-63.2,342.9-68,369.5-68,397.2z"/>
<path class="st5" d="M-54.4,318c0,0.1,0,0.1-0.1,0.2h312.9c-9.3-74.1-32.1-137-68.3-156.9c-7-0.6-14.1-1-21.3-1
	C65.8,160.3-21.8,226.1-54.4,318z"/>
<path class="st6" d="M258.5,475.2H-54.8c0.1,0.2,0.1,0.4,0.2,0.7C-22.1,568,65.6,634,168.8,634c7.2,0,14.3-0.4,21.3-1
	C226.5,613.1,249.3,549.7,258.5,475.2z"/>
</svg>
