<?xml version="1.0" encoding="utf-8"?>
<!-- Generator: Adobe Illustrator 20.1.0, SVG Export Plug-In . SVG Version: 6.00 Build 0)  -->
<svg version="1.1" id="Layer_1" xmlns="http://www.w3.org/2000/svg" xmlns:xlink="http://www.w3.org/1999/xlink" x="0px" y="0px"
	 viewBox="0 0 173 80" style="enable-background:new 0 0 173 80;" xml:space="preserve">
<style type="text/css">
	.st0{fill:#FFFFFF;}
</style>
<g>
	<path class="st0" d="M6.6,29.9h10.9l8.4,13.7l8.7-13.7H45L31.3,50.4l14.9,22.4H35L25.6,58l-9.5,14.8H5.5l14.9-22.4L6.6,29.9z"/>
	<path class="st0" d="M73.1,29.9c1.9,0,3.7,0.3,5.2,0.9c1.5,0.6,2.9,1.5,4,2.6s1.9,2.3,2.5,3.8c0.6,1.4,0.9,3,0.9,4.6
		c0,2.5-0.5,4.7-1.6,6.5s-2.8,3.2-5.2,4.2v0.1c1.2,0.3,2.1,0.8,2.9,1.5c0.8,0.7,1.4,1.4,1.9,2.3c0.5,0.9,0.8,1.9,1.1,3
		c0.2,1.1,0.4,2.2,0.4,3.2c0,0.7,0.1,1.5,0.1,2.4s0.1,1.9,0.2,2.8s0.3,1.9,0.5,2.7c0.2,0.9,0.5,1.6,1,2.2h-9.4c-0.5-1.4-0.8-3-1-4.9
		c-0.1-1.9-0.3-3.7-0.5-5.4c-0.3-2.2-1-3.9-2-4.9s-2.7-1.6-5.1-1.6h-9.4v16.7H50V29.9H73.1z M69.7,49.3c2.2,0,3.8-0.5,4.9-1.4
		s1.6-2.5,1.6-4.7c0-2.1-0.5-3.6-1.6-4.5s-2.7-1.4-4.9-1.4H59.4v12.1h10.3V49.3z"/>
	<path class="st0" d="M112.6,29.9c2.7,0,5,0.4,6.8,1.2c1.9,0.8,3.4,1.8,4.6,3.1s2,2.7,2.6,4.4c0.5,1.6,0.8,3.3,0.8,5.1
		c0,1.7-0.3,3.4-0.8,5.1c-0.5,1.7-1.4,3.1-2.6,4.4c-1.2,1.3-2.7,2.3-4.6,3.1s-4.2,1.2-6.8,1.2h-9.9v15.4h-9.4v-43H112.6z M110,50.1
		c1.1,0,2.1-0.1,3.1-0.2c1-0.2,1.9-0.5,2.6-0.9c0.8-0.5,1.4-1.1,1.8-1.9c0.5-0.8,0.7-1.9,0.7-3.3c0-1.4-0.2-2.5-0.7-3.3
		s-1.1-1.5-1.8-2c-0.8-0.5-1.6-0.8-2.6-0.9c-1-0.2-2-0.2-3.1-0.2h-7.3v12.8h7.3V50.1z"/>
</g>
<g>
	<path class="st0" d="M141,15c-0.4,0-0.7,0.1-0.9,0.2c-0.2,0.1-0.4,0.3-0.6,0.5c-0.1,0.2-0.2,0.4-0.3,0.6c-0.1,0.2-0.1,0.4-0.1,0.5
		h3.7c-0.1-0.6-0.3-1-0.6-1.3C142,15.2,141.5,15,141,15z"/>
	<path class="st0" d="M156.7,5.9h-25.6c-5.8,0-10.6,4.8-10.6,10.6c0,0.5,0,0.9,0.1,1.4l0.3,10.5l4.9-2.8c1.6,0.9,3.4,1.3,5.3,1.3
		h25.6c5.8,0,10.6-4.7,10.6-10.5S162.5,5.9,156.7,5.9z M134.6,21.7h-2.5v-9.2h-3.4v-2.1h9.3v2.1h-3.4V21.7z M139.7,19.8
		c0.3,0.3,0.8,0.5,1.5,0.5c0.5,0,0.8-0.1,1.2-0.3c0.3-0.2,0.5-0.5,0.6-0.7h2c-0.3,1-0.8,1.7-1.5,2.1s-1.4,0.6-2.4,0.6
		c-0.6,0-1.2-0.1-1.7-0.3s-1-0.5-1.3-0.9c-0.4-0.4-0.6-0.8-0.8-1.4s-0.3-1.1-0.3-1.7c0-0.6,0.1-1.2,0.3-1.7s0.5-1,0.9-1.4
		s0.8-0.7,1.3-0.9s1.1-0.3,1.7-0.3c0.7,0,1.3,0.1,1.8,0.4c0.5,0.3,0.9,0.6,1.3,1.1c0.3,0.5,0.6,1,0.7,1.6s0.2,1.2,0.2,1.8h-5.9
		C139.2,18.9,139.3,19.5,139.7,19.8z M151.4,21.7l-1.7-2.6l-1.7,2.6h-2.5l2.9-4.3l-2.7-3.9h2.6l1.4,2.1l1.4-2.1h2.5l-2.7,3.8l3,4.4
		H151.4z M159.3,15.1h-1.6v4.1c0,0.4,0.1,0.6,0.2,0.8c0.1,0.1,0.4,0.2,0.8,0.2c0.1,0,0.2,0,0.4,0c0.1,0,0.2,0,0.3,0v1.7
		c-0.2,0-0.4,0.1-0.6,0.1s-0.5,0-0.7,0c-0.3,0-0.7,0-1-0.1c-0.3,0-0.6-0.1-0.8-0.3c-0.2-0.1-0.4-0.3-0.6-0.6c-0.1-0.3-0.2-0.6-0.2-1
		v-4.8h-1.4v-1.5h1.4v-2.5h2.2v2.5h1.6L159.3,15.1L159.3,15.1z"/>
</g>
</svg>
